REM MD5 34ec33fa8c429698cbeda690c03232fe
FILE "NASCAR Racing (USA).bin" BINARY
  TRACK 01 MODE2/2352
    INDEX 01 00:00:00
  TRACK 02 AUDIO
    INDEX 01 08:57:10
  TRACK 03 AUDIO
    INDEX 01 12:31:14
  TRACK 04 AUDIO
    INDEX 01 15:43:67
  TRACK 05 AUDIO
    INDEX 01 18:51:01
  TRACK 06 AUDIO
    INDEX 01 23:47:01
  TRACK 07 AUDIO
    INDEX 01 27:33:42
  TRACK 08 AUDIO
    INDEX 01 32:16:17
  TRACK 09 AUDIO
    INDEX 01 35:34:52
  TRACK 10 AUDIO
    INDEX 01 39:32:22
REM LEADOUT 44:30:39
